<?xml version="1.0" encoding="UTF-8" standalone="no"?>
<!-- Created with Inkscape (http://www.inkscape.org/) -->

<svg
   width="160mm"
   height="90mm"
   viewBox="0 0 160 90"
   version="1.1"
   id="svg5"
   inkscape:version="1.1.2 (0a00cf5339, 2022-02-04)"
   sodipodi:docname="oembeddings.svg"
   xmlns:inkscape="http://www.inkscape.org/namespaces/inkscape"
   xmlns:sodipodi="http://sodipodi.sourceforge.net/DTD/sodipodi-0.dtd"
   xmlns="http://www.w3.org/2000/svg"
   xmlns:svg="http://www.w3.org/2000/svg">
  <sodipodi:namedview
     id="namedview7"
     pagecolor="#ffffff"
     bordercolor="#666666"
     borderopacity="1.0"
     inkscape:pageshadow="2"
     inkscape:pageopacity="0.0"
     inkscape:pagecheckerboard="0"
     inkscape:document-units="mm"
     showgrid="false"
     inkscape:zoom="1.3932941"
     inkscape:cx="269.50521"
     inkscape:cy="147.4922"
     inkscape:window-width="1920"
     inkscape:window-height="958"
     inkscape:window-x="0"
     inkscape:window-y="0"
     inkscape:window-maximized="1"
     inkscape:current-layer="text1683" />
  <defs
     id="defs2" />
  <g
     inkscape:label="Layer 1"
     inkscape:groupmode="layer"
     id="layer1">
    <g
       aria-label="ömbeddings"
       id="text1683"
       style="font-size:24.6427px;line-height:1.25;stroke-width:0.616068">
      <path
         d="m 10.463788,37.593956 q -0.6256936,0.613661 -1.5161037,0.613661 -0.8904101,0 -1.5161036,-0.613661 -0.6377262,-0.613661 -0.6377262,-1.504071 0,-0.878378 0.6377262,-1.516104 0.6256935,-0.625693 1.5161036,-0.625693 0.8904101,0 1.5161037,0.625693 0.625693,0.625694 0.625693,1.516104 0,0.89041 -0.625693,1.504071 z m 5.968154,-1.504071 q 0,0.89041 -0.613661,1.504071 -0.613661,0.613661 -1.504071,0.613661 -0.89041,0 -1.516104,-0.613661 -0.625693,-0.613661 -0.625693,-1.504071 0,-0.89041 0.625693,-1.516104 0.625694,-0.625693 1.516104,-0.625693 0.89041,0 1.504071,0.625693 0.613661,0.625694 0.613661,1.516104 z m 0.08423,14.824124 q -1.937244,1.840983 -4.885223,1.840983 -2.9600118,0 -4.8972553,-1.840983 -1.9372435,-1.840983 -1.9372435,-4.620506 0,-2.779524 1.9372435,-4.620506 1.9372435,-1.840983 4.8972553,-1.840983 2.947979,0 4.885223,1.840983 1.913178,1.840982 1.913178,4.620506 0,2.779523 -1.913178,4.620506 z M 9.4410196,48.591723 q 0.8543124,0.902443 2.1899274,0.902443 1.323583,0 2.189928,-0.914475 0.866344,-0.902443 0.866344,-2.286188 0,-1.371713 -0.866344,-2.298221 -0.866345,-0.902442 -2.189928,-0.902442 -1.335615,0 -2.1899274,0.902442 -0.8663449,0.926508 -0.8663449,2.298221 0,1.419843 0.8663449,2.29822 z"
         style="font-family:'Isidora Sans Alt';-inkscape-font-specification:'Isidora Sans Alt'"
         id="path12245" />
      <path
         d="m 36.357876,39.832014 q 2.286188,0 3.693998,1.45594 1.407811,1.467974 1.407811,3.874487 v 7.291737 h -3.79026 v -7.02702 q 0,-1.094964 -0.577563,-1.720657 -0.565531,-0.637727 -1.564234,-0.637727 -1.010735,0 -1.636429,0.649759 -0.613661,0.649759 -0.613661,1.708625 v 7.02702 h -3.814324 v -7.02702 q 0,-1.082931 -0.577563,-1.720657 -0.577564,-0.637727 -1.564234,-0.637727 -1.010736,0 -1.63643,0.649759 -0.637726,0.661791 -0.637726,1.708625 v 7.02702 h -3.790259 v -8.627352 q 0,-0.661791 -0.493335,-0.661791 -0.204554,0 -0.37301,0.120326 l -0.264716,-0.144391 -0.397075,-2.514807 0.168456,-0.276749 q 0.733987,-0.5174 1.804885,-0.5174 2.117732,0 2.803589,1.78082 1.45594,-1.756755 3.826356,-1.78082 2.538872,0 3.88652,1.78082 1.564234,-1.78082 4.139204,-1.78082 z"
         style="font-family:'Isidora Sans Alt';-inkscape-font-specification:'Isidora Sans Alt'"
         id="path12247" />
      <path
         d="m 51.615175,39.832014 q 2.67123,0 4.427985,1.865048 1.73269,1.865048 1.73269,4.596441 0,2.743425 -1.744722,4.596441 -1.756755,1.865048 -4.415953,1.865048 -2.322286,0 -3.970747,-1.660494 v 1.35968 H 44.419699 V 36.041754 l 3.525543,-0.397074 0.288781,0.180488 v 5.017581 q 1.528137,-1.010735 3.381152,-1.010735 z m -0.613661,9.662152 q 1.35968,0 2.20196,-0.914475 0.830247,-0.902443 0.830247,-2.286188 0,-1.383746 -0.842279,-2.298221 -0.84228,-0.902442 -2.189928,-0.902442 -1.275452,0 -2.129764,0.866345 -0.854313,0.89041 -0.854313,2.334318 0,1.443908 0.854313,2.322286 0.842279,0.878377 2.129764,0.878377 z"
         style="font-family:'Isidora Sans Alt';-inkscape-font-specification:'Isidora Sans Alt'"
         id="path12249" />
      <path
         d="m 72.166799,47.135783 h -9.144752 q 0.132358,1.371712 1.034801,2.081634 0.926508,0.721954 2.238057,0.721954 2.117733,0 3.405217,-1.35968 h 0.264717 l 1.708625,1.636429 v 0.288782 q -0.938541,1.106996 -2.466677,1.684559 -1.467973,0.565531 -3.080337,0.565531 -2.923915,0 -4.861158,-1.792853 -1.937244,-1.792852 -1.937244,-4.644571 0,-2.803589 1.853016,-4.644571 1.840983,-1.840983 4.716767,-1.840983 2.731393,0 4.536278,1.732689 1.804885,1.804886 1.804885,4.584409 0,0.529433 -0.0722,0.986671 z M 65.80157,42.527309 q -1.119029,0 -1.865048,0.661791 -0.746019,0.649759 -0.89041,1.768788 h 5.486851 Q 68.388572,43.923087 67.774911,43.309426 67.028892,42.527309 65.80157,42.527309 Z"
         style="font-family:'Isidora Sans Alt';-inkscape-font-specification:'Isidora Sans Alt'"
         id="path12251" />
      <path
         d="m 87.929465,49.301645 0.300814,0.144391 0.385042,2.514807 -0.168456,0.276749 q -0.733987,0.5174 -1.816918,0.5174 -2.033504,0 -2.815621,-1.612364 -1.600331,1.600331 -3.88652,1.612364 -2.683262,0 -4.440017,-1.865048 -1.756755,-1.865048 -1.756755,-4.596441 0,-2.731393 1.756755,-4.596441 1.756755,-1.865048 4.440017,-1.865048 1.828951,0 3.36912,1.0348 v -4.82506 l 3.501477,-0.397074 0.300814,0.180488 v 12.935011 q 0,0.661792 0.481303,0.661792 0.228619,0 0.348945,-0.120326 z m -7.412063,0.192521 q 1.31155,0 2.141798,-0.866345 0.830247,-0.84228 0.830247,-2.334318 0,-1.480006 -0.830247,-2.346351 -0.854313,-0.854312 -2.141798,-0.854312 -1.35968,0 -2.177895,0.902442 -0.830247,0.926508 -0.830247,2.298221 0,1.383745 0.830247,2.286188 0.806183,0.914475 2.177895,0.914475 z"
         style="font-family:'Isidora Sans Alt';-inkscape-font-specification:'Isidora Sans Alt'"
         id="path12253" />
      <path
         d="m 104.11327,49.301645 0.30082,0.144391 0.38504,2.514807 -0.16846,0.276749 q -0.73398,0.5174 -1.81692,0.5174 -2.0335,0 -2.815617,-1.612364 -1.600331,1.600331 -3.886519,1.612364 -2.683263,0 -4.440018,-1.865048 -1.756755,-1.865048 -1.756755,-4.596441 0,-2.731393 1.756755,-4.596441 1.756755,-1.865048 4.440018,-1.865048 1.82895,0 3.369119,1.0348 v -4.82506 l 3.501477,-0.397074 0.30081,0.180488 v 12.935011 q 0,0.661792 0.48131,0.661792 0.22862,0 0.34894,-0.120326 z m -7.41206,0.192521 q 1.31155,0 2.141797,-0.866345 0.830247,-0.84228 0.830247,-2.334318 0,-1.480006 -0.830247,-2.346351 -0.854312,-0.854312 -2.141797,-0.854312 -1.359681,0 -2.177895,0.902442 -0.830247,0.926508 -0.830247,2.298221 0,1.383745 0.830247,2.286188 0.806182,0.914475 2.177895,0.914475 z"
         style="font-family:'Isidora Sans Alt';-inkscape-font-specification:'Isidora Sans Alt'"
         id="path12255" />
      <path
         d="m 111.12826,35.849233 q 0,0.962606 -0.68585,1.648462 -0.68586,0.685857 -1.67253,0.685857 -0.9987,0 -1.6605,-0.685857 -0.68585,-0.685856 -0.68585,-1.648462 0,-0.98667 0.68585,-1.684559 0.6618,-0.685857 1.6605,-0.685857 0.98667,0 1.67253,0.685857 0.68585,0.697889 0.68585,1.684559 z m -0.93854,16.905759 q -1.61236,0 -2.47871,-0.866345 -0.86634,-0.878377 -0.86634,-2.562937 v -9.192882 h 3.81432 v 8.627351 q 0,0.661792 0.46927,0.661792 0.25269,0 0.37301,-0.120326 l 0.27675,0.144391 0.38504,2.514807 -0.16845,0.276749 q -0.73399,0.5174 -1.80489,0.5174 z"
         style="font-family:'Isidora Sans Alt';-inkscape-font-specification:'Isidora Sans Alt'"
         id="path12257" />
      <path
         d="m 121.87334,39.832014 q 2.27416,0 3.70603,1.480005 1.41985,1.467974 1.41985,3.850422 v 7.291737 h -3.82636 v -7.02702 q 0,-1.070899 -0.61366,-1.708625 -0.60163,-0.649759 -1.64846,-0.649759 -1.0348,0 -1.67253,0.649759 -0.64976,0.649759 -0.64976,1.708625 v 7.02702 h -3.79026 v -8.627352 q 0,-0.661791 -0.49333,-0.661791 -0.20456,0 -0.37301,0.120326 l -0.26472,-0.144391 -0.39707,-2.514807 0.16845,-0.276749 q 0.73399,-0.5174 1.80489,-0.5174 2.11773,0 2.80358,1.78082 1.40782,-1.78082 3.82636,-1.78082 z"
         style="font-family:'Isidora Sans Alt';-inkscape-font-specification:'Isidora Sans Alt'"
         id="path12259" />
      <path
         d="m 143.32741,40.349414 0.16846,0.276749 -0.38504,2.514807 -0.27675,0.144391 q -0.12033,-0.120326 -0.37301,-0.120326 -0.46927,0 -0.45724,0.661791 v 6.55775 q 0,2.984077 -1.90114,4.560344 -1.90115,1.576266 -4.88523,1.576266 -3.76619,0 -5.81173,-2.346351 v -0.264716 l 1.60033,-1.949276 h 0.25269 q 0.67382,0.806182 1.73269,1.287484 1.04683,0.481303 2.25009,0.481303 1.40781,0 2.33432,-0.673824 0.9265,-0.673824 0.9265,-2.009439 v -0.758051 q -1.50407,1.106996 -3.47741,1.106996 -2.50277,0 -4.18733,-1.648462 -1.67253,-1.636429 -1.67253,-4.115138 0,-2.490742 1.67253,-4.151237 1.68456,-1.648461 4.18733,-1.648461 2.22603,0 3.86246,1.40781 0.74602,-1.40781 2.64716,-1.40781 1.05887,0 1.79285,0.5174 z m -7.48425,8.230277 q 1.28748,0 2.09366,-0.830247 0.80619,-0.806182 0.80619,-2.129765 0,-1.299517 -0.80619,-2.141797 -0.80618,-0.830247 -2.12976,-0.830247 -1.26342,0 -2.08164,0.830247 -0.81821,0.854312 -0.81821,2.141797 0,1.31155 0.81821,2.129765 0.81822,0.830247 2.11774,0.830247 z"
         style="font-family:'Isidora Sans Alt';-inkscape-font-specification:'Isidora Sans Alt'"
         id="path12261" />
      <path
         d="m 150.10174,52.779057 q -1.70862,0 -3.18863,-0.625693 -1.46797,-0.601629 -2.33432,-1.648462 v -0.264717 l 1.6966,-1.901146 h 0.27675 q 0.55349,0.661792 1.57626,1.119029 1.02277,0.457238 1.99741,0.457238 0.66179,0 1.0709,-0.264717 0.4091,-0.276749 0.4091,-0.697889 0,-0.336911 -0.27675,-0.613661 -0.26471,-0.276749 -0.62569,-0.433172 -0.19252,-0.08423 -0.95057,-0.360977 -0.72196,-0.216586 -1.26342,-0.42114 -0.44521,-0.144391 -1.16716,-0.529433 -0.66179,-0.324879 -1.0709,-0.733987 -0.9626,-0.98667 -0.9626,-2.29822 0,-1.720658 1.34764,-2.743426 1.34765,-1.010736 3.60977,-1.010736 1.57627,0 2.91189,0.553499 1.32358,0.553498 2.04553,1.467973 v 0.276749 l -1.68456,1.768788 h -0.26471 q -1.35968,-1.323583 -3.00815,-1.299518 -0.58959,0 -0.9626,0.240652 -0.36098,0.228618 -0.36098,0.589595 0,0.312847 0.26472,0.505368 0.28878,0.228619 0.69789,0.397075 0.54146,0.216586 1.04683,0.397075 0.0602,0.01203 0.60163,0.228619 1.84098,0.709921 2.75546,1.588299 0.91447,0.878377 0.91447,2.502774 0,1.696592 -1.40781,2.71936 -1.41984,1.034801 -3.694,1.034801 z"
         style="font-family:'Isidora Sans Alt';-inkscape-font-specification:'Isidora Sans Alt'"
         id="path12263" />
    </g>
  </g>
</svg>
